<?xml version="1.0" standalone="no"?><!DOCTYPE svg PUBLIC "-//W3C//DTD SVG 1.1//EN" "http://www.w3.org/Graphics/SVG/1.1/DTD/svg11.dtd"><svg t="1564563135109" class="icon" viewBox="0 0 1024 1024" version="1.1" xmlns="http://www.w3.org/2000/svg" p-id="4321" xmlns:xlink="http://www.w3.org/1999/xlink" width="200" height="200"><defs><style type="text/css"></style></defs><path d="M370.907763 920.938939v0.016123l157.558305 90.944292 157.534121-90.944292v-0.016123l-157.534121-90.944292z" fill="#F93585" p-id="4322"></path><path d="M528.466068 1011.899354l157.534121-90.944292v-0.016123l-157.534121-90.944292" fill="#FC70B0" p-id="4323"></path><path d="M528.466068 1023.991938c-2.087986 0-4.175972-0.540135-6.046292-1.620406l-157.558305-90.944292a12.108707 12.108707 0 0 1 0-20.960479l157.558305-90.944292a12.092584 12.092584 0 0 1 12.092584 0l157.534121 90.944292a12.092584 12.092584 0 0 1 0 20.944355l-157.534121 90.960416a12.084522 12.084522 0 0 1-6.046292 1.620406z m-133.373138-103.052999l133.373138 76.997512 133.348953-76.981389-133.348953-76.997512-133.373138 76.981389z" fill="#33363A" p-id="4324"></path><path d="M624.150653 449.126626c-19.227208 32.924075-54.876145 55.174429-95.684585 55.174429-40.824563 0-76.457377-22.250354-95.700708-55.174429H269.378429c25.644339 119.474728 132.051016 209.346812 259.087639 209.346811 127.020501 0 233.427177-89.864021 259.063455-209.346811H624.150653z" fill="#FC70B0" p-id="4325"></path><path d="M528.466068 504.292993c-40.824563 0-76.457377-22.250354-95.700708-55.174429H292.507511c43.928326 85.720296 133.187718 144.562809 235.958557 144.562809 102.770839 0 192.014108-58.842513 235.934373-144.562809H624.150653c-19.227208 32.932137-54.868084 55.174429-95.684585 55.174429z" fill="#F93585" p-id="4326"></path><path d="M432.76536 339.16473c19.243332-32.932137 54.876145-55.182491 95.700708-55.182491 40.816501 0 76.457377 22.250354 95.684585 55.182491h163.37887c-25.636278-119.48279-132.042954-209.354873-259.063455-209.354873-127.036624 0-233.4433 89.864021-259.087639 209.354873h163.386931z" fill="#FC70B0" p-id="4327"></path><path d="M528.466068 283.982239c40.816501 0 76.457377 22.250354 95.684585 55.182491h140.241726C720.480176 253.436372 631.236908 194.601921 528.466068 194.601921c-102.770839 0-192.02217 58.834451-235.958557 144.562809h140.257849c19.243332-32.932137 54.876145-55.182491 95.700708-55.182491z" fill="#F93585" p-id="4328"></path><path d="M528.458007 394.137616m-57.762243 0a57.762242 57.762242 0 1 0 115.524485 0 57.762242 57.762242 0 1 0-115.524485 0Z" fill="#F93585" p-id="4329"></path><path d="M528.466068 336.367312a57.762242 57.762242 0 0 1 57.754181 57.770304 57.75418 57.75418 0 0 1-57.754181 57.770304" fill="#FC70B0" p-id="4330"></path><path d="M528.466068 464.000504c-38.51891 0-69.862888-31.343977-69.862887-69.862888s31.343977-69.862888 69.862887-69.862888c38.510849 0 69.846764 31.343977 69.846765 69.862888s-31.335916 69.862888-69.846765 69.862888z m0-115.540608c-25.184821 0-45.67772 20.492899-45.67772 45.67772s20.492899 45.67772 45.67772 45.67772c25.17676 0 45.661597-20.492899 45.661597-45.67772s-20.484837-45.67772-45.661597-45.67772zM418.278444 406.2302H336.661565a12.092584 12.092584 0 1 1 0-24.185168h81.616879a12.092584 12.092584 0 1 1 0 24.185168zM289.653661 406.2302a12.116769 12.116769 0 0 1-12.092584-12.092584c0-3.144072 1.289876-6.288144 3.539096-8.545426 4.442009-4.514565 12.584349-4.514565 17.090852 0 2.257282 2.257282 3.547158 5.401354 3.547158 8.545426s-1.289876 6.288144-3.547158 8.545426c-2.249221 2.257282-5.393292 3.547158-8.537364 3.547158zM246.837852 406.2302a12.108707 12.108707 0 0 1-12.092584-12.092584c0-3.144072 1.289876-6.288144 3.474603-8.545426 4.58712-4.514565 12.576287-4.514565 17.171469 0 2.257282 2.257282 3.539096 5.401354 3.539096 8.545426s-1.281814 6.288144-3.539096 8.545426c-2.3379 2.257282-5.401354 3.547158-8.553488 3.547158zM720.246386 406.2302H638.637569a12.092584 12.092584 0 1 1 0-24.185168h81.608817a12.092584 12.092584 0 1 1 0 24.185168zM767.230105 406.2302c-3.152134 0-6.288144-1.289876-8.553487-3.547158-2.257282-2.257282-3.539096-5.401354-3.539096-8.545426s1.281814-6.288144 3.539096-8.545426c4.522626-4.514565 12.656904-4.514565 17.090852 0a12.084522 12.084522 0 0 1-8.537365 20.63801zM810.11847 406.2302a12.108707 12.108707 0 0 1-12.092584-12.092584c0-3.144072 1.289876-6.288144 3.547158-8.545426 4.514565-4.514565 12.576287-4.514565 17.090851 0 2.249221 2.257282 3.539096 5.401354 3.539097 8.545426s-1.289876 6.288144-3.539097 8.545426c-2.257282 2.257282-5.401354 3.547158-8.545425 3.547158z" fill="#33363A" p-id="4331"></path><path d="M519.896457 779.004251a12.108707 12.108707 0 0 0 0 17.090852c2.257282 2.257282 5.401354 3.547158 8.553488 3.547158a12.108707 12.108707 0 0 0 12.092584-12.092584c0-3.224689-1.289876-6.288144-3.547158-8.545426-4.522626-4.514565-12.584349-4.514565-17.098914 0zM886.366242 394.137616a12.092584 12.092584 0 1 0-24.185168 0c0 179.961833-143.200378 327.023776-321.622422 333.416722v-57.270477c124.682601-5.506157 232.427523-95.749079 258.797418-218.633916a12.100646 12.100646 0 0 0-11.826547-14.623965H624.150653a12.092584 12.092584 0 0 0-10.43993 5.997922c-17.711604 30.336262-50.377704 49.176508-85.244655 49.176507-34.858888 0-67.53305-18.840246-85.260777-49.184569a12.092584 12.092584 0 0 0-10.439931-5.98986H269.378429a12.108707 12.108707 0 0 0-11.826547 14.632027c26.369895 122.884837 134.139002 213.119698 258.813541 218.633916v81.447583a12.092584 12.092584 0 0 0 24.185167 0.008061c191.764195-6.417131 345.815651-164.305968 345.815652-357.609951z m-601.557676 67.081594h141.249441c22.717934 34.197827 61.333585 55.174429 102.408061 55.174429 41.082538 0 79.690128-20.96854 102.391939-55.174429h141.241379c-30.126657 108.148008-130.261313 185.161644-243.633318 185.161643-113.372004-0.008062-213.514722-77.021697-243.657502-185.161643zM516.373484 60.720894v57.270477c-124.682601 5.506157-232.443647 95.749079-258.813541 218.641978a12.084522 12.084522 0 0 0 11.826547 14.632027h163.386932a12.092584 12.092584 0 0 0 10.43993-5.98986c17.727728-30.344324 50.401889-49.192631 85.260778-49.192631 34.86695 0 67.53305 18.848307 85.236593 49.184569 2.176665 3.708392 6.151094 5.997922 10.447992 5.997922h163.37887a12.108707 12.108707 0 0 0 11.826547-14.623965C772.994237 213.748512 665.249315 123.50559 540.566714 117.999433V47.749583a12.092584 12.092584 0 0 0-12.092584-12.092584c-1.330184 0-2.587813 0.266037-3.780948 0.661061-195.617698 2.047678-354.14341 161.734278-354.14341 357.819556a12.092584 12.092584 0 1 0 24.185167 0c0-179.961833 143.20844-327.023776 321.638545-333.416722z m255.733964 266.351252H630.858007c-22.693749-34.205889-61.301338-55.182491-102.391939-55.182491-41.082538 0-79.690128 20.976602-102.408061 55.182491H284.808566c30.134719-108.148008 130.277437-185.169706 243.657502-185.169705s213.50666 77.013636 243.64138 185.169705zM528.441883 24.023933a12.108707 12.108707 0 0 0 12.092584-12.092584c0-3.144072-1.289876-6.288144-3.547158-8.545426-4.514565-4.514565-12.49567-4.514565-17.090852 0a12.108707 12.108707 0 0 0 8.545426 20.63801z" fill="#33363A" p-id="4332"></path><path d="M891.557991 766.089372c-22.782428 0-42.783562 12.785892-49.805322 31.771248a4.111479 4.111479 0 0 1-0.395025 0.773926 3.877689 3.877689 0 0 1-0.395024-0.773926c-7.02176-18.985357-27.022894-31.771249-49.821445-31.771248-28.82872 0-52.304456 20.670257-52.304456 46.056621 0 9.238734 3.055393 18.163061 8.908203 25.757203 0.04837 0.04837 0.096741 0.137049 0.096741 0.13705 0.18542 0.209605 0.346654 0.346654 0.491765 0.483703l93.024216 110.042513 93.024217-110.042513c0.145111-0.137049 0.314407-0.266037 0.507889-0.483703 0 0 0.016123-0.088679 0.080617-0.13705a41.88871 41.88871 0 0 0 8.916265-25.757203c-0.008062-25.386364-23.483798-46.056621-52.328641-46.056621z" fill="#FC70B0" p-id="4333"></path><path d="M840.970682 797.86062c-7.02176-18.985357-27.022894-31.771249-49.821446-31.771248-28.82872 0-52.304456 20.670257-52.304456 46.056621 0 9.238734 3.055393 18.163061 8.908204 25.757203 0.04837 0.04837 0.096741 0.137049 0.09674 0.13705 0.18542 0.209605 0.346654 0.346654 0.491766 0.483703l93.024216 110.042513V798.634546a3.329491 3.329491 0 0 1-0.395024-0.773926z" fill="#F93585" p-id="4334"></path><path d="M841.365706 960.659046a12.092584 12.092584 0 0 1-9.238734-4.288837L739.441348 846.722721l-0.628815-0.653a53.884554 53.884554 0 0 1-12.060336-33.923728c0-32.061471 28.893214-58.149205 64.397039-58.149205 19.93664 0 38.212565 8.198772 50.200347 21.573169 11.947473-13.350213 30.247583-21.57317 50.21647-21.573169 35.51995 0 64.413163 26.087734 64.413163 58.149205a53.86843 53.86843 0 0 1-11.076807 32.682223 10.931696 10.931696 0 0 1-1.701023 1.991246l-92.596946 109.542686a12.108707 12.108707 0 0 1-9.238734 4.296898z m-84.293371-130.487042a5.844749 5.844749 0 0 1 0.507889 0.540136l83.793544 99.118879 83.793544-99.118879c0.18542-0.217667 0.378901-0.435333 0.580444-0.636876a29.908991 29.908991 0 0 0 6.054354-17.929271c0-18.727382-18.042135-33.964037-40.227996-33.964037-17.719666 0-33.18205 9.59345-38.462478 23.878822a16.187939 16.187939 0 0 1-1.676838 3.281121c-4.490379 6.731538-15.63168 6.731538-20.12206 0a15.841285 15.841285 0 0 1-1.604283-3.095702c-5.344922-14.46273-20.815368-24.064242-38.543095-24.064241-22.177799 0-40.211872 15.236656-40.211872 33.964037a29.667139 29.667139 0 0 0 6.118847 18.026011z" fill="#33363A" p-id="4335"></path><path d="M232.83464 710.052338c-22.782428 0-42.783562 12.785892-49.813384 31.779311a3.595528 3.595528 0 0 1-0.386962 0.765863 3.619713 3.619713 0 0 1-0.395025-0.765863c-7.02176-18.993418-27.030956-31.77931-49.829507-31.779311-28.820658 0-52.296394 20.670257-52.296394 46.056621 0 9.238734 3.055393 18.163061 8.908203 25.757204 0.04837 0.04837 0.088679 0.137049 0.088679 0.137049a6.360699 6.360699 0 0 0 0.491765 0.475642l93.032279 110.042513 93.024216-110.042513c0.137049-0.137049 0.306345-0.266037 0.499827-0.475642 0 0 0.024185-0.088679 0.088679-0.137049a41.880649 41.880649 0 0 0 8.908204-25.757204c0-25.386364-23.475736-46.056621-52.32058-46.056621z" fill="#FC70B0" p-id="4336"></path><path d="M182.247331 741.831649c-7.02176-18.993418-27.030956-31.77931-49.829507-31.779311-28.820658 0-52.296394 20.670257-52.296394 46.056621 0 9.238734 3.055393 18.163061 8.908203 25.757204 0.04837 0.04837 0.088679 0.137049 0.088679 0.137049a6.360699 6.360699 0 0 0 0.491765 0.475642l93.032279 110.042513V742.597512a3.281121 3.281121 0 0 1-0.395025-0.765863z" fill="#F93585" p-id="4337"></path><path d="M182.642356 904.622012a12.092584 12.092584 0 0 1-9.238735-4.288836L80.709935 790.685687l-0.628814-0.652999a10.778523 10.778523 0 0 1-0.886789-1.136703 53.852307 53.852307 0 0 1-11.165486-32.795088c0-32.061471 28.885152-58.149205 64.388978-58.149204 19.952763 0 38.228688 8.206834 50.21647 21.597354 11.97972-13.398583 30.255645-21.597355 50.200346-21.597354 35.51995 0 64.413163 26.087734 64.413163 58.149204a53.852307 53.852307 0 0 1-11.165485 32.795088 10.778523 10.778523 0 0 1-1.580098 1.854196L191.873028 900.333176a12.092584 12.092584 0 0 1-9.230672 4.288836zM98.365108 774.159156c0.169296 0.161234 0.257975 0.249913 0.483703 0.507889l83.801606 99.118878L266.443962 774.667045c0.18542-0.217667 0.378901-0.435333 0.580444-0.636877a29.908991 29.908991 0 0 0 6.054353-17.929271c0-18.727382-18.042135-33.964037-40.227995-33.964037-17.719666 0-33.18205 9.601512-38.462479 23.886884a16.445914 16.445914 0 0 1-1.668776 3.27306c-4.490379 6.731538-15.63168 6.731538-20.12206 0a15.938026 15.938026 0 0 1-1.668776-3.256936c-5.280428-14.301496-20.750874-23.903007-38.486664-23.903008-22.169737 0-40.20381 15.236656-40.20381 33.964037a29.667139 29.667139 0 0 0 6.126909 18.058259z" fill="#33363A" p-id="4338"></path><path d="M213.623555 510.742371c-14.059644 0-26.402141 7.884365-30.74741 19.614171a2.90222 2.90222 0 0 1-0.233789 0.475642 2.176665 2.176665 0 0 1-0.23379-0.475642c-4.337207-11.721745-16.687766-19.614171-30.74741-19.614171-17.792222 0-32.279137 12.761707-32.279137 28.417572a25.870068 25.870068 0 0 0 5.554526 15.986396c0.120926 0.137049 0.209605 0.209605 0.306346 0.298284l57.407526 67.911951 57.407527-67.911951 0.306345-0.298284s0.024185-0.056432 0.056432-0.088679a25.870068 25.870068 0 0 0 5.498095-15.897717c-0.016123-15.655865-14.503039-28.417572-32.295261-28.417572z" fill="#FC70B0" p-id="4339"></path><path d="M182.400504 530.356542c-4.337207-11.721745-16.687766-19.614171-30.74741-19.614171-17.792222 0-32.279137 12.761707-32.279137 28.417572a25.870068 25.870068 0 0 0 5.554527 15.986396c0.120926 0.137049 0.209605 0.209605 0.306345 0.298284l57.407527 67.911951V530.824122a2.136356 2.136356 0 0 1-0.241852-0.46758z" fill="#F93585" p-id="4340"></path><path d="M182.642356 635.449158a12.092584 12.092584 0 0 1-9.238735-4.288837l-57.068934-67.508865a12.205448 12.205448 0 0 1-1.31406-1.555912 37.857849 37.857849 0 0 1-7.747316-22.935601c0-22.339033 19.904393-40.510156 44.371721-40.510156 11.866856 0 22.88723 4.272713 30.997324 11.455708 8.118155-7.191057 19.130468-11.455708 30.981199-11.455708 24.467328 0 44.371721 18.171123 44.371721 40.510156a37.785294 37.785294 0 0 1-8.577672 23.983625l-0.499827 0.524012-57.044749 67.492741a12.068399 12.068399 0 0 1-9.230672 4.288837z m-48.4832-88.154937l0.306345 0.346654L182.642356 604.629192l48.176854-56.988317a6.900835 6.900835 0 0 1 0.322468-0.362777c1.781641-2.458825 2.676492-5.183688 2.676492-8.110093 0-8.851771-9.238734-16.324988-20.186553-16.324988-9.013006 0-16.816753 4.708046-19.412628 11.721744-0.322469 0.878728-0.991592 2.192789-1.515604 2.974776-4.490379 6.731538-15.63168 6.731538-20.122059 0-0.532074-0.806172-1.209258-2.144418-1.539789-3.047331-2.563628-6.941143-10.367375-11.649189-19.380381-11.649189-10.939758 0-20.186553 7.481279-20.186554 16.324988-0.008062 2.878035 0.919036 5.683514 2.684554 8.126216z" fill="#33363A" p-id="4341"></path><path d="M905.254858 210.580255c-14.059644 0-26.402141 7.892426-30.739349 19.614171a2.055739 2.055739 0 0 1-0.249913 0.475642 2.176665 2.176665 0 0 1-0.23379-0.475642c-4.329145-11.721745-16.671642-19.614171-30.74741-19.614171-17.792222 0-32.279137 12.761707-32.279137 28.417572a25.870068 25.870068 0 0 0 5.562589 15.986396c0.112864 0.137049 0.217667 0.209605 0.298283 0.298284l57.407527 67.911951 57.407526-67.911951c0.096741-0.088679 0.201543-0.169296 0.314407-0.298284 0 0 0.016123-0.056432 0.048371-0.088679a25.837821 25.837821 0 0 0 5.514218-15.897717c-0.008062-15.655865-14.494977-28.417572-32.303322-28.417572z" fill="#FC70B0" p-id="4342"></path><path d="M874.031806 230.186364c-4.329145-11.721745-16.671642-19.614171-30.74741-19.614171-17.792222 0-32.279137 12.761707-32.279137 28.417572a25.870068 25.870068 0 0 0 5.562589 15.986396c0.112864 0.137049 0.217667 0.209605 0.298283 0.298284l57.407527 67.911951V230.662006a2.192789 2.192789 0 0 1-0.241852-0.475642z" fill="#F93585" p-id="4343"></path><path d="M874.273658 335.27898a12.092584 12.092584 0 0 1-9.238734-4.288837l-57.09312-67.541111a13.785546 13.785546 0 0 1-1.136702-1.330185 37.857849 37.857849 0 0 1-7.892427-23.129082c0-22.339033 19.904393-40.510156 44.371721-40.510155 11.874917 0 22.895292 4.272713 31.005385 11.447646 8.102031-7.191057 19.114344-11.447646 30.973138-11.447646 24.47539 0 44.387844 18.171123 44.387845 40.510155a37.761108 37.761108 0 0 1-7.67476 22.814675c-0.193481 0.298284-0.41921 0.580444-0.636876 0.854543a11.068745 11.068745 0 0 1-0.814234 0.878728l-57.012502 67.444371a12.07646 12.07646 0 0 1-9.238734 4.296898z m-48.491262-88.162998l0.032247 0.032247 48.459015 57.310785 48.176854-56.988316a7.078192 7.078192 0 0 1 0.322469-0.37084c1.789702-2.458825 2.692615-5.183688 2.692615-8.102031 0-8.851771-9.246796-16.324988-20.202677-16.324988-9.013006 0-16.808692 4.699984-19.388443 11.705621a15.881593 15.881593 0 0 1-2.055739 3.708392 12.108707 12.108707 0 0 1-19.598047-0.717493c-0.532074-0.806172-1.209258-2.144418-1.539789-3.047331-2.555566-6.949205-10.359313-11.649189-19.380381-11.649189-10.939758 0-20.186553 7.481279-20.186554 16.324988a13.704928 13.704928 0 0 0 2.66843 8.118155z" fill="#33363A" p-id="4344"></path></svg>