<?xml version="1.0" standalone="no"?><!DOCTYPE svg PUBLIC "-//W3C//DTD SVG 1.1//EN" "http://www.w3.org/Graphics/SVG/1.1/DTD/svg11.dtd"><svg t="1564563140820" class="icon" viewBox="0 0 1024 1024" version="1.1" xmlns="http://www.w3.org/2000/svg" p-id="4627" xmlns:xlink="http://www.w3.org/1999/xlink" width="200" height="200"><defs><style type="text/css"></style></defs><path d="M1011.897316 602.173062c0 54.066722-43.843989 97.926848-97.910711 97.926848H110.013395C55.946673 700.09991 12.102684 656.239784 12.102684 602.173062V367.558504c0-54.082859 43.843989-97.926848 97.910711-97.926848h803.981279c54.066722 0 97.910711 43.843989 97.910711 97.926848v234.614558z" fill="#7BC7FF" p-id="4628"></path><path d="M913.986605 269.631656H110.013395C55.946673 269.631656 12.102684 313.475645 12.102684 367.558504v192.255165c0 54.066722 43.843989 97.926848 97.910711 97.926848h803.981279c54.066722 0 97.910711-43.860126 97.910711-97.926848V367.558504c-0.008068-54.082859-43.852057-97.926848-97.91878-97.926848z" fill="#0086FF" p-id="4629"></path><path d="M913.986605 712.202594H110.013395C49.346676 712.202594 0 662.839781 0 602.173062V367.558504c0-60.674788 49.346676-110.029532 110.013395-110.029532h803.981279c60.666719 0 110.013395 49.354744 110.013394 110.029532v234.614558c-0.008068 60.666719-49.354744 110.029532-110.021463 110.029532zM110.013395 281.73434C62.69997 281.73434 24.205367 320.228942 24.205367 367.558504v234.614558C24.205367 649.494555 62.69997 687.997226 110.013395 687.997226h803.981279c47.313425 0 85.808027-38.494603 85.808027-85.824164V367.558504c0-47.321493-38.494603-85.824164-85.808027-85.824164H110.013395z" fill="#33363A" p-id="4630"></path><path d="M618.971587 669.052492L512 776.024079 405.028413 669.052492" fill="#7BC7FF" p-id="4631"></path><path d="M512 788.126763c-3.098287 0-6.196574-1.177995-8.560632-3.542052L396.47585 677.605055a12.102684 12.102684 0 1 1 17.113195-17.113194l98.410955 98.410955 98.410955-98.410955a12.102684 12.102684 0 1 1 17.113195 17.113194L520.560632 784.576642c-2.364058 2.364058-5.462345 3.550121-8.560632 3.550121zM512.016137 95.086752a12.102684 12.102684 0 0 1-12.102684-12.102684v-8.003908a12.102684 12.102684 0 0 1 24.205368 0v8.003908a12.102684 12.102684 0 0 1-12.102684 12.102684zM512.016137 215.024347a12.102684 12.102684 0 0 1-12.102684-12.102684v-46.990686a12.102684 12.102684 0 0 1 24.205368 0v46.990686a12.102684 12.102684 0 0 1-12.102684 12.102684zM291.271255 138.123895c-3.074082 0-6.156232-1.169926-8.512221-3.50171l-5.720535-5.655987a12.102684 12.102684 0 1 1 17.016373-17.210017l5.720535 5.655988a12.102684 12.102684 0 0 1-8.504152 20.711726zM376.078794 222.971776c-3.098287 0-6.204643-1.177995-8.568701-3.542052l-33.266243-33.298517a12.110752 12.110752 0 0 1 17.129332-17.113195l33.266243 33.298517a12.110752 12.110752 0 0 1-8.560631 20.655247zM732.761019 138.156169a12.102684 12.102684 0 0 1-8.560631-20.655247l5.688261-5.688261a12.102684 12.102684 0 1 1 17.113195 17.113194l-5.688262 5.688262a12.030068 12.030068 0 0 1-8.552563 3.542052zM647.969617 222.971776a12.102684 12.102684 0 0 1-8.5687-20.647178l33.23397-33.28238a12.102684 12.102684 0 1 1 17.129331 17.097057l-33.233969 33.282381c-2.364058 2.364058-5.470413 3.550121-8.560632 3.55012zM511.967726 961.122524a12.102684 12.102684 0 0 1-12.102684-12.102684v-8.003908a12.102684 12.102684 0 0 1 24.205368 0v8.003908a12.102684 12.102684 0 0 1-12.102684 12.102684zM511.967726 880.171707a12.102684 12.102684 0 0 1-12.102684-12.110752l0.016137-46.990687a12.102684 12.102684 0 0 1 12.102684-12.094615h0.008069a12.102684 12.102684 0 0 1 12.094615 12.110752l-0.016137 46.990687a12.102684 12.102684 0 0 1-12.102684 12.094615zM738.449281 915.73746c-3.074082 0-6.156232-1.169926-8.512221-3.50171l-5.720535-5.655987a12.102684 12.102684 0 1 1 17.016373-17.210017l5.720535 5.655988a12.102684 12.102684 0 0 1-8.504152 20.711726zM681.18745 858.548245c-3.098287 0-6.204643-1.177995-8.5687-3.542052l-33.266244-33.298517a12.110752 12.110752 0 0 1 17.129332-17.113195l33.266243 33.298517a12.110752 12.110752 0 0 1-8.560631 20.655247zM285.550719 915.73746a12.102684 12.102684 0 0 1-8.560631-20.655247l5.688261-5.688261a12.102684 12.102684 0 1 1 17.113195 17.113195l-5.688261 5.688261a12.062341 12.062341 0 0 1-8.552564 3.542052zM342.796413 858.515971a12.102684 12.102684 0 0 1-8.5687-20.647178l33.23397-33.28238a12.102684 12.102684 0 1 1 17.129331 17.097058l-33.233969 33.28238a12.021999 12.021999 0 0 1-8.560632 3.55012z" fill="#33363A" p-id="4632"></path><path d="M207.617505 408.957751h-76.206565a12.102684 12.102684 0 0 0-12.102684 12.102684v111.110705a12.102684 12.102684 0 0 0 12.102684 12.102683h76.206565a12.102684 12.102684 0 0 0 12.102683-12.102683V421.060435a12.102684 12.102684 0 0 0-12.102683-12.102684z m-12.102684 24.205367v31.345951h-52.001198v-31.345951h52.001198z m-52.001198 86.905338V488.706368h52.001198v31.362088h-52.001198zM344.611816 408.957751h-76.206565a12.102684 12.102684 0 0 0-12.102684 12.102684v111.110705a12.102684 12.102684 0 0 0 24.205368 0V488.706368h52.001197v43.464772a12.102684 12.102684 0 0 0 24.205368 0V421.060435a12.102684 12.102684 0 0 0-12.102684-12.102684z m-64.103881 55.54325v-31.345951h52.001197v31.345951h-52.001197zM755.578612 520.068456h-64.103881V421.060435a12.102684 12.102684 0 0 0-24.205367 0v111.110705a12.102684 12.102684 0 0 0 12.102683 12.102683h76.206565a12.102684 12.102684 0 0 0 0-24.205367zM481.598059 408.957751h-76.206566a12.102684 12.102684 0 0 0 0 24.205367h26.004634v99.008022a12.102684 12.102684 0 0 0 24.205367 0V433.163118h26.004633a12.102684 12.102684 0 0 0-0.008068-24.205367zM618.59237 408.957751h-76.206565a12.102684 12.102684 0 0 0 0 24.205367h26.004633v99.008022a12.102684 12.102684 0 0 0 24.205367 0V433.163118h26.004633a12.102684 12.102684 0 0 0-0.008068-24.205367zM892.572923 488.706368a12.102684 12.102684 0 0 0 0-24.205367h-64.103881v-31.345951h64.103881a12.102684 12.102684 0 0 0 0-24.205368h-76.206565a12.102684 12.102684 0 0 0-12.102683 12.102684v111.110705a12.102684 12.102684 0 0 0 12.102683 12.102684h76.206565a12.102684 12.102684 0 0 0 0-24.205368h-64.103881V488.706368h64.103881z" fill="#33363A" p-id="4633"></path></svg>