<?xml version="1.0" standalone="no"?><!DOCTYPE svg PUBLIC "-//W3C//DTD SVG 1.1//EN" "http://www.w3.org/Graphics/SVG/1.1/DTD/svg11.dtd"><svg t="1564563144175" class="icon" viewBox="0 0 1024 1024" version="1.1" xmlns="http://www.w3.org/2000/svg" p-id="4769" xmlns:xlink="http://www.w3.org/1999/xlink" width="200" height="200"><defs><style type="text/css"></style></defs><path d="M512 1011.978431a55.993941 55.993941 0 0 1-45.389028-23.178739l-287.06099-396.743804a56.025956 56.025956 0 0 1-10.636928-32.847217V233.761898a56.033959 56.033959 0 0 1 28.012978-48.526482L483.979018 19.486628a56.057971 56.057971 0 0 1 56.03396 0l287.06099 165.748788a56.033959 56.033959 0 0 1 28.012978 48.526482v325.454777a56.041963 56.041963 0 0 1-10.636928 32.847217L557.389028 988.791689a55.977934 55.977934 0 0 1-45.389028 23.186742zM280.964966 541.072269l231.035034 319.299925 231.035034-319.299925V266.104881L512 132.707081 280.964966 266.104881v274.967388z" fill="#7BC7FF" p-id="4770"></path><path d="M827.073968 257.268788L540.012978 91.519999a56.057971 56.057971 0 0 0-56.03396 0L196.926032 257.268788a56.033959 56.033959 0 0 0-28.012978 48.526481v253.421406c0 11.797466 3.721724 23.282786 10.636928 32.847217l287.06099 396.7358a56.001945 56.001945 0 0 0 45.389028 23.178739 55.993941 55.993941 0 0 0 45.389028-23.178739l287.06099-396.7358a56.025956 56.025956 0 0 0 10.636928-32.847217V305.795269a56.033959 56.033959 0 0 0-28.012978-48.526481z m-84.038934 80.869465v274.975391l-231.035034 319.299926-231.035034-319.30793V266.104881L512 132.707081l231.035034 133.3978v72.033372z" fill="#0086FF" p-id="4771"></path><path d="M512 1023.983993a68.191592 68.191592 0 0 1-55.121537-28.157045L169.825477 599.091148a67.591314 67.591314 0 0 1-12.909981-39.874473V233.761898a68.223607 68.223607 0 0 1 34.007755-58.915295l287.06099-165.756792a68.199596 68.199596 0 0 1 68.031518 0l287.06099 165.748788a68.239614 68.239614 0 0 1 34.015759 58.915295v325.454777a67.631332 67.631332 0 0 1-12.909981 39.874473l-287.06099 396.743804a68.191592 68.191592 0 0 1-55.121537 28.157045z m0-999.97527c-7.611526 0-15.223053 1.960908-22.018201 5.874721L202.928813 195.632233a44.164461 44.164461 0 0 0-22.010197 38.129665v325.454777c0 9.32432 2.889339 18.248454 8.355871 25.811958l287.06099 396.7358c8.251823 11.405284 21.577997 18.208436 35.664523 18.208436s27.4127-6.811155 35.664523-18.208436l287.06099-396.7358a43.780283 43.780283 0 0 0 8.355871-25.811958V233.761898a44.172464 44.172464 0 0 0-22.010197-38.129665L534.010197 29.883444a44.060412 44.060412 0 0 0-22.010197-5.874721z m0 848.377037c-3.849784 0-7.46746-1.840853-9.724505-4.970303L271.240461 548.107528a12.005562 12.005562 0 0 1-2.281057-7.035259V266.104881a12.005562 12.005562 0 0 1 6.002781-10.396816l231.035034-133.397801a12.005562 12.005562 0 0 1 12.005562 0l231.035034 133.397801a12.005562 12.005562 0 0 1 6.002781 10.396816v274.967388c0 2.521168-0.800371 4.98631-2.281057 7.035259l-231.035034 319.307929a12.005562 12.005562 0 0 1-9.724505 4.970303z m-219.029472-335.19529l219.029472 302.708239 219.029472-302.708239V273.036093L512 146.569503 292.970528 273.036093v264.154377z" fill="#33363A" p-id="4772"></path><path d="M512 430.981266m-125.946349 0a125.946349 125.946349 0 1 0 251.892698 0 125.946349 125.946349 0 1 0-251.892698 0Z" fill="#7BC7FF" p-id="4773"></path><path d="M637.946349 430.981266c0 53.288688-56.394126 96.476696-125.946349 96.476695-69.544219 0-125.938345-43.188008-125.938345-96.476695 0-53.232662 56.394126-96.476696 125.938345-96.476696 69.552222 0 125.946349 43.244034 125.946349 96.476696z" fill="#0086FF" p-id="4774"></path><path d="M386.053651 430.981266c0 69.560226 56.394126 125.954352 125.938345 125.954352 69.552222 0 125.946349-56.394126 125.946349-125.954352H386.053651z" fill="#FFFFFF" p-id="4775"></path><path d="M511.991996 527.457961c69.552222 0 125.946349-43.188008 125.946349-96.476695H386.053651c0 53.288688 56.394126 96.476696 125.938345 96.476695z" fill="#DCE6EA" p-id="4776"></path><path d="M512 293.037359c-76.059237 0-137.943907 61.876666-137.943907 137.943907 0 76.075244 61.88467 137.959914 137.943907 137.959914 76.067241 0 137.951911-61.88467 137.951911-137.959914 0-76.067241-61.892674-137.943907-137.951911-137.943907z m0 24.011124c58.771228 0 107.273698 44.732724 113.30049 101.927221h-226.584973c6.010785-57.202501 54.513255-101.927221 113.284483-101.927221z m0 227.881573c-58.771228 0-107.273698-44.732724-113.292486-101.943229h226.584972c-6.018788 57.210505-54.521259 101.943228-113.292486 101.943229z" fill="#33363A" p-id="4777"></path><path d="M511.991996 445.419955m-41.635289 0a41.635289 41.635289 0 1 0 83.270578 0 41.635289 41.635289 0 1 0-83.270578 0Z" fill="#A7BBC1" p-id="4778"></path><path d="M511.991996 431.253392m-41.635289 0a41.635289 41.635289 0 1 0 83.270578 0 41.635289 41.635289 0 1 0-83.270578 0Z" fill="#FFFFFF" p-id="4779"></path><path d="M482.554358 460.69103a41.635289 41.635289 0 0 1 58.88328-58.875276" fill="#D8E5EA" p-id="4780"></path><path d="M512 484.902246a53.27268 53.27268 0 0 1-37.937576-15.727286c-10.124691-10.124691-15.703275-23.586927-15.703275-37.921568s5.578584-27.812885 15.711279-37.929572a53.304695 53.304695 0 0 1 37.937576-15.711279c14.334641 0 27.804881 5.578584 37.929572 15.711279a53.296691 53.296691 0 0 1 15.711279 37.937575 53.232662 53.232662 0 0 1-15.719283 37.921569 53.27268 53.27268 0 0 1-37.929572 15.719282z m0-83.278581c-7.915667 0-15.359116 3.081428-20.961711 8.676019s-8.676019 13.03804-8.67602 20.953708 3.081428 15.359116 8.668016 20.9377c11.205191 11.229202 30.726235 11.197187 41.907415 0.016007a29.397619 29.397619 0 0 0 8.684023-20.953707c0-7.915667-3.081428-15.359116-8.676019-20.945704l-0.008004-0.008004a29.373608 29.373608 0 0 0-20.9377-8.676019z" fill="#33363A" p-id="4781"></path></svg>