<?xml version="1.0" standalone="no"?><!DOCTYPE svg PUBLIC "-//W3C//DTD SVG 1.1//EN" "http://www.w3.org/Graphics/SVG/1.1/DTD/svg11.dtd"><svg t="1564563161064" class="icon" viewBox="0 0 1024 1024" version="1.1" xmlns="http://www.w3.org/2000/svg" p-id="5069" xmlns:xlink="http://www.w3.org/1999/xlink" width="200" height="200"><defs><style type="text/css"></style></defs><path d="M1011.897412 602.168317c0 54.074365-43.843643 97.926077-97.918008 97.926077H110.012528C55.946232 700.094394 12.102588 656.242682 12.102588 602.168317V367.555608c0-54.082433 43.843643-97.918008 97.90994-97.918008h803.966876c54.074365 0 97.918008 43.835575 97.918008 97.918008v234.612709z" fill="#FFD00B" p-id="5070"></path><path d="M913.979404 269.6376H110.012528C55.946232 269.6376 12.102588 313.473175 12.102588 367.555608v192.25365c0 54.074365 43.843643 97.926077 97.90994 97.926077h803.966876c54.074365 0 97.918008-43.851712 97.918008-97.926077V367.555608c0-54.082433-43.843643-97.918008-97.918008-97.918008z" fill="#FF9C0D" p-id="5071"></path><path d="M913.979404 712.196982H110.012528C49.354355 712.196982 0 662.834559 0 602.168317V367.555608c0-60.666241 49.354355-110.020596 110.012528-110.020596h803.966876c60.666241 0 110.020596 49.354355 110.020596 110.020596v234.612709c0 60.666241-49.354355 110.028665-110.020596 110.028665zM110.012528 281.740188C62.699476 281.740188 24.205177 320.234488 24.205177 367.555608v234.612709C24.205177 649.489438 62.699476 687.991806 110.012528 687.991806h803.966876c47.32112 0 85.81542-38.494299 85.815419-85.823489V367.555608c0-47.32112-38.494299-85.81542-85.815419-85.81542H110.012528z" fill="#33363A" p-id="5072"></path><path d="M193.714029 440.768199a12.102588 12.102588 0 1 0 0-24.205177h-76.205965a12.102588 12.102588 0 0 0-12.102588 12.102589V539.77544a12.102588 12.102588 0 0 0 12.102588 12.102589h76.205965a12.102588 12.102588 0 0 0 12.102588-12.102589v-55.567017a12.102588 12.102588 0 0 0-12.102588-12.102588h-38.107016a12.102588 12.102588 0 1 0 0 24.205176h26.004428V527.672852h-52.000788V440.768199h64.103376zM317.547713 416.563022h-76.205965a12.102588 12.102588 0 0 0-12.102588 12.102589V539.77544a12.102588 12.102588 0 0 0 12.102588 12.102589h76.205965a12.102588 12.102588 0 0 0 12.102588-12.102589V428.665611a12.102588 12.102588 0 0 0-12.102588-12.102589z m-12.102588 111.10983h-52.000788V440.768199h52.000788V527.672852zM441.389465 416.563022h-76.197896a12.102588 12.102588 0 1 0 0 24.205177h25.99636V539.77544a12.102588 12.102588 0 1 0 24.205177 0V440.768199h25.996359a12.102588 12.102588 0 1 0 0-24.205177zM565.231218 440.768199a12.102588 12.102588 0 1 0 0-24.205177H489.025253a12.102588 12.102588 0 0 0-12.102588 12.102589V539.77544a12.102588 12.102588 0 0 0 12.102588 12.102589h76.197896a12.102588 12.102588 0 1 0 0-24.205177H501.127841V440.768199h64.103377zM689.064902 416.563022a12.102588 12.102588 0 0 0-12.102589 12.102589v43.448292h-51.992719v-43.448292a12.102588 12.102588 0 1 0-24.205177 0V539.77544a12.102588 12.102588 0 1 0 24.205177 0v-43.464429h51.992719V539.77544a12.102588 12.102588 0 1 0 24.205177 0V428.665611a12.102588 12.102588 0 0 0-12.102588-12.102589zM812.914722 416.563022h-76.205964a12.102588 12.102588 0 0 0-12.102589 12.102589V539.77544a12.102588 12.102588 0 1 0 24.205177 0v-43.464429h52.000788V539.77544a12.102588 12.102588 0 1 0 24.205177 0V428.665611a12.102588 12.102588 0 0 0-12.102589-12.102589z m-64.103376 55.550881v-31.345704h52.000788v31.345704h-52.000788zM860.542442 416.563022a12.102588 12.102588 0 0 0-12.102589 12.102589v75.810613a12.102588 12.102588 0 1 0 24.205177 0v-75.810613a12.102588 12.102588 0 0 0-12.102588-12.102589zM906.500004 416.563022a12.102588 12.102588 0 0 0-12.102588 12.102589v75.810613a12.102588 12.102588 0 1 0 24.205176 0v-75.810613a12.102588 12.102588 0 0 0-12.102588-12.102589zM860.542442 527.672852a12.102588 12.102588 0 0 0-12.102589 12.102588v1.290943a12.102588 12.102588 0 1 0 24.205177 0v-1.290943a12.102588 12.102588 0 0 0-12.102588-12.102588zM906.500004 527.672852a12.102588 12.102588 0 0 0-12.102588 12.102588v1.290943a12.102588 12.102588 0 1 0 24.205176 0v-1.290943a12.102588 12.102588 0 0 0-12.102588-12.102588z" fill="#33363A" p-id="5073"></path><path d="M618.974778 669.047221L512.004034 776.017965 405.025222 669.047221" fill="#FFD00B" p-id="5074"></path><path d="M512.004034 788.120553c-3.098263 0-6.196525-1.177985-8.560564-3.542024L396.472726 677.599716a12.102588 12.102588 0 1 1 17.11306-17.11306l98.418248 98.41018 98.418249-98.41018a12.102588 12.102588 0 1 1 17.11306 17.11306L520.55653 784.570461c-2.364039 2.364039-5.462302 3.550093-8.552496 3.550092zM512.020171 95.086002a12.102588 12.102588 0 0 1-12.102588-12.102588v-8.003845a12.102588 12.102588 0 1 1 24.205176 0v8.003845a12.102588 12.102588 0 0 1-12.102588 12.102588zM512.012103 215.022653a12.102588 12.102588 0 0 1-12.102589-12.102588l0.008069-46.990317a12.102588 12.102588 0 0 1 24.205176 0l-0.008068 46.990317a12.102588 12.102588 0 0 1-12.102588 12.102588zM291.26896 138.122807c-3.074057 0-6.156183-1.169917-8.512154-3.501683l-5.712422-5.655943a12.102588 12.102588 0 1 1 17.024308-17.201812l5.712421 5.655943a12.102588 12.102588 0 0 1-8.512153 20.703495zM376.083899 222.970019c-3.098263 0-6.196525-1.177985-8.560564-3.550092l-33.265982-33.298255a12.102588 12.102588 0 0 1 17.121129-17.104992l33.265981 33.298255a12.102588 12.102588 0 0 1-8.560564 20.655084zM732.755246 138.15508a12.102588 12.102588 0 0 1-8.552496-20.663152l5.696285-5.688217a12.102588 12.102588 0 1 1 17.104991 17.121128l-5.696285 5.688217a12.029973 12.029973 0 0 1-8.552495 3.542024zM647.964512 222.978088a12.086452 12.086452 0 0 1-8.560564-20.655084l33.241776-33.290187a12.102588 12.102588 0 1 1 17.129196 17.11306l-33.241776 33.290187a12.118725 12.118725 0 0 1-8.568632 3.542024zM511.979829 961.123019a12.102588 12.102588 0 0 1-12.102588-12.102588v-8.003845a12.102588 12.102588 0 1 1 24.205176 0v8.003845a12.102588 12.102588 0 0 1-12.102588 12.102588zM511.979829 880.17284a12.102588 12.102588 0 0 1-12.102588-12.102588l0.008068-46.990317a12.102588 12.102588 0 0 1 24.205177 0l-0.008069 46.990317a12.102588 12.102588 0 0 1-12.102588 12.102588zM738.451531 915.738313c-3.074057 0-6.156183-1.169917-8.512154-3.501682l-5.712422-5.655943a12.102588 12.102588 0 1 1 17.024308-17.201812l5.712421 5.655943a12.102588 12.102588 0 0 1-8.512153 20.703494zM681.182082 858.533412c-3.098263 0-6.196525-1.177985-8.560564-3.550092l-33.265981-33.298255a12.102588 12.102588 0 0 1 17.121128-17.104992l33.265982 33.298255a12.102588 12.102588 0 0 1-8.560565 20.655084z" fill="#33363A" p-id="5075"></path><path d="M285.548469 915.738313a12.102588 12.102588 0 0 1-8.552495-20.663152l5.696285-5.688217a12.102588 12.102588 0 0 1 17.104991 17.121128l-5.696285 5.688217a12.029973 12.029973 0 0 1-8.552496 3.542024zM342.793712 858.517275a12.086452 12.086452 0 0 1-8.560564-20.655084l33.241776-33.290186a12.102588 12.102588 0 1 1 17.129197 17.11306l-33.241776 33.290186a12.102588 12.102588 0 0 1-8.568633 3.542024z" fill="#33363A" p-id="5076"></path></svg>