<?xml version="1.0" standalone="no"?><!DOCTYPE svg PUBLIC "-//W3C//DTD SVG 1.1//EN" "http://www.w3.org/Graphics/SVG/1.1/DTD/svg11.dtd"><svg t="1564563137621" class="icon" viewBox="0 0 1024 1024" version="1.1" xmlns="http://www.w3.org/2000/svg" p-id="4480" xmlns:xlink="http://www.w3.org/1999/xlink" width="200" height="200"><defs><style type="text/css"></style></defs><path d="M725.170439 585.208225c0 117.733629-95.440823 195.36108-213.174453 195.36108s-213.174453-77.627451-213.174452-195.36108 95.448851-213.174453 213.18248-213.174452 213.166425 95.440823 213.166425 213.174452z" fill="#FF1A1A" p-id="4481"></path><path d="M725.170439 585.208225H298.829561c0 27.735558 9.055198 58.561764 24.982071 87.991157l-3.885386 3.885387 192.077768 334.873744 192.077768-334.873744-3.885387-3.885387c15.918845-29.429393 24.974043-60.255599 24.974044-87.991157z" fill="#D8E5EA" p-id="4482"></path><path d="M411.802789 585.208225H298.829561c0 27.735558 9.055198 58.561764 24.982071 87.991157l-3.885386 3.885387 152.172281 265.306062h39.905487V585.208225H411.802789z" fill="#FFFFFF" p-id="4483"></path><path d="M704.113892 585.208225c-1.276398 2.56885-2.544768 5.145729-3.925524 7.714579l3.885386 3.885387-192.06974 334.873744-192.077768-334.873744 3.885386-3.885387c-1.380757-2.56885-2.649127-5.145729-3.925524-7.714579h-21.056547c0 27.735558 9.055198 58.561764 24.982071 87.991157l-3.885386 3.885387 192.077768 334.873744 192.077768-334.873744-3.885387-3.885387c15.926873-29.429393 24.982071-60.255599 24.982071-87.991157h-21.064574z" fill="#A7BBC1" p-id="4484"></path><path d="M512.004014 421.925666c-117.733629 0-213.174453 73.107879-213.174453 163.282559h426.340878c0-90.166652-95.432796-163.282559-213.166425-163.282559z" fill="#D60909" p-id="4485"></path><path d="M512.004014 421.925666v163.282559h213.174452c-0.008028-90.166652-95.440823-163.282559-213.174452-163.282559z" fill="#B50B0B" p-id="4486"></path><path d="M512.004014 604.916125m-57.959689 0a57.959689 57.959689 0 1 0 115.919378 0 57.959689 57.959689 0 1 0-115.919378 0Z" fill="#A7BBC1" p-id="4487"></path><path d="M546.563081 362.649441a47.218683 47.218683 0 0 0 12.876363-32.383572c0-21.995782-15.059886-40.483478-35.393943-45.837926v-31.034925a12.041487 12.041487 0 1 0-24.082974 0v31.034925c-20.334057 5.354448-35.393943 23.842144-35.393943 45.837926 0 12.523146 4.912927 23.898337 12.876363 32.383572-107.835527 16.681473-190.648845 110.12341-190.648845 222.558784 0 34.952422 7.907243 67.440353 23.496955 96.588779 0.321106 0.594047 0.682351 1.16401 1.099789 1.693836L501.52792 1017.907008a12.049514 12.049514 0 0 0 20.936132 0l189.918328-334.127173 0.224774-0.297023c0.409411-0.529825 0.778683-1.099789 1.099789-1.693836 15.589711-29.140398 23.496954-61.636357 23.496955-96.588778 0.008028-112.41932-82.80529-205.869284-190.640817-222.550757z m-34.559067-55.744056a23.384567 23.384567 0 0 1 23.352456 23.360484c0 12.876363-10.476093 23.344429-23.352456 23.344429s-23.352457-10.476093-23.352457-23.344429a23.384567 23.384567 0 0 1 23.352457-23.360484z m0 77.169874c106.856153 0 194.486065 83.768609 200.739611 189.09148H311.264403c6.253545-105.314843 93.87543-189.091479 200.739611-189.09148z m180.943406 285.479567l-0.120414 0.160553a12.85228 12.85228 0 0 0-0.947264 1.420895l-179.875728 316.45027-179.875728-316.45027a12.145846 12.145846 0 0 0-0.947264-1.420895l-0.120415-0.160553c-11.624048-22.019865-18.254894-46.295502-19.812259-72.305114h401.511332c-1.565393 26.009611-8.196239 50.285248-19.81226 72.305114zM512.004014 211.247815a12.041487 12.041487 0 0 0 12.041487-12.041487v-41.486935a12.041487 12.041487 0 1 0-24.082974 0v41.486935a12.041487 12.041487 0 0 0 12.041487 12.041487zM512.004014 115.574189a12.041487 12.041487 0 0 0 12.041487-12.041486V62.061822a12.041487 12.041487 0 1 0-24.082974 0v41.470881a12.041487 12.041487 0 0 0 12.041487 12.041486zM512.004014 23.92242c3.130787 0 6.261573-1.284425 8.509317-3.532169s3.532169-5.378531 3.53217-8.509317-1.284425-6.261573-3.53217-8.509318c-4.495488-4.495488-12.523146-4.495488-17.018634 0-2.247744 2.247744-3.532169 5.378531-3.53217 8.509318s1.284425 6.261573 3.53217 8.509317c2.239717 2.247744 5.370503 3.532169 8.509317 3.532169z" fill="#33363A" p-id="4488"></path><path d="M512.004014 585.216253m-57.951662 0a57.951662 57.951662 0 1 0 115.903323 0 57.951662 57.951662 0 1 0-115.903323 0Z" fill="#FFFFFF" p-id="4489"></path><path d="M471.022821 626.197446a57.959689 57.959689 0 0 1 81.954358-81.954358" fill="#D8E5EA" p-id="4490"></path><path d="M512.004014 655.169263a69.824567 69.824567 0 0 1-49.498538-20.4625c-27.286009-27.294036-27.286009-71.703039 0-98.989048a69.519516 69.519516 0 0 1 49.498538-20.510666c18.696415 0 36.268958 7.281086 49.49051 20.502638v0.008028a69.519516 69.519516 0 0 1 20.49461 49.482483 69.567682 69.567682 0 0 1-20.49461 49.498537 69.728236 69.728236 0 0 1-49.49051 20.470528z m0-115.871213a45.581041 45.581041 0 0 0-32.463848 13.454355 45.966369 45.966369 0 0 0 0 64.927696 45.966369 45.966369 0 0 0 64.919668 0 45.637235 45.637235 0 0 0 13.446327-32.471876 45.573013 45.573013 0 0 0-13.446327-32.447793v-0.008027a45.613152 45.613152 0 0 0-32.45582-13.454355z" fill="#33363A" p-id="4491"></path></svg>