<?xml version="1.0" standalone="no"?><!DOCTYPE svg PUBLIC "-//W3C//DTD SVG 1.1//EN" "http://www.w3.org/Graphics/SVG/1.1/DTD/svg11.dtd"><svg t="1564563271843" class="icon" viewBox="0 0 1024 1024" version="1.1" xmlns="http://www.w3.org/2000/svg" p-id="1814" xmlns:xlink="http://www.w3.org/1999/xlink" width="200" height="200"><defs><style type="text/css"></style></defs><path d="M742 888.7c20.3-11.7 39.3-27.1 56.8-43.6-17.4 16.5-33.4 33.2-53.8 45-23.4 13.5-37 25.8-67.7 41.2-7.3 4.1-13 7.2-18.1 9.7 5.2-2.7 10-5.8 14.3-9.4 21.6-18.1 45.2-29.4 68.5-42.9z" fill="#6EBFCC" p-id="1815"></path><path d="M603.5 963.5c12-2 20.4-3.7 27.4-5.4-9.1 2.5-18.5 4.5-27.4 5.4z" fill="#040000" p-id="1816"></path><path d="M542.7 374.8c38.1 25.4 77.9 46.4 127.9 48.5-8 22-17.2 39.3-20.4 57.9-3.3 18.8-0.7 38.9-0.7 60.3-0.7 1.1-1.9 5.6-4.4 6.7-39.4 17.9-56 54.3-66.4 95.1-7.8 31-13.2 62.8-20.3 94.1-4.9 21.8-5.4 21.6-26 44.7-25.3-10.1-35.5-36.7-48.9-57.9-48.1-75.7-65.7-163.6-82.8-251.5-2.7-13.9 2.8-26 12.3-33.3 29.9-22.7 60.6-44.1 91.4-65.4 10.4-7.2 22.2-7.1 33.6-1.4 1.7 0.7 3.3 1.3 4.7 2.2z" fill="#C1D2DB" p-id="1817"></path><path d="M630.9 958.1c-7 1.7-15.4 3.4-27.4 5.4 8.9-0.9 18.3-2.9 27.4-5.4z m-551.6-532c-20.9 64.1-16.6 161.8 12.4 228.7 14.5-56.3 20.9-105.5 26.7-155.3 3.4-28.9-5.2-48.7-21.8-67.3-3.6-4.2-11.4-4.2-17.3-6.1z m404.3 298.1c13.4 21.1 23.6 47.8 48.9 57.9 20.6-23.1 21.1-23 26-44.7 7.1-31.3 12.5-63 20.3-94.1 10.3-40.8 26.9-77.3 66.4-95.1 2.5-1.1 3.7-5.6 4.4-6.7 0-21.4-2.5-41.4 0.7-60.3 3.2-18.5 12.3-35.8 20.4-57.9-50-2.1-89.8-23.1-127.9-48.5-1.4-0.9-3.1-1.4-4.6-2.2-11.4-5.7-23.2-5.8-33.6 1.4-30.8 21.3-61.5 42.7-91.4 65.4-9.5 7.2-15 19.4-12.3 33.3 17 87.8 34.6 175.8 82.7 251.5z m105.8-443.5c35.1 24.5 71.3 37.9 112.7 36.7 4.7-0.1 9.5 2.8 16.5 5.2 16.4 29.3 16.9 67.6 35.1 95 6 2.3 9.4 5.1 12.2 4.5 42.4-8.4 85-16.2 127.1-26.3 20.9-5 31.6-27.3 27-50.5-1.4-6.9-4.7-13.4-7-20.1-21.7-64-59.4-116.5-106.1-160.9-38.8-36.8-81.6-69.7-133-83.2-59.4-15.8-117.9-21.4-168.3 31.2-17.5 18.3-40.9 30.6-66.5 35.1-16.8 3-31.5 11.3-43.3 27.1 4.7 28.6-12.8 50-24.6 73-10.4 20.4-20.9 40-22.9 72.8 14-4.1 22.2-4.9 29-8.7 20.8-11.5 40.8-24.5 61.5-36.1 74.5-41.7 81.3-42.9 150.6 5.2z m69 681.4c-151 48.9-293.5 29.6-427.3-60.3-32.7-22-62.3-48.3-87.6-79.9-4.4-5.5-8.6-11.4-13-16.3-37.8-41.9-62.4-100.9-69-124.3-7.3-25.8-14.2-51.1-18.4-78-9.4-61.2-8.2-121.6 0.4-182.3 19-133 84.1-233.6 190.9-300.8 58.2-36.6 134.2-59.5 202-68.7 51-10 131.9-19.2 216.8-4.4 29.1 3.1 55.2 12.2 81 25.7C834.6 125.6 905.7 208.1 949.4 318c6.4 16.1 8.4 34.5 12.1 51.9 15.4 72.6 19.6 146.7 8.2 219.5-12.9 82-40 159.4-97.4 220.1-10.7 11.3-21.2 23-30.7 35.4-15.2 20-34.5 33.5-55.4 45.3-17.6 10.1-35.4 20.3-51.6 32.6-23.5 17.9-48.6 30.4-76.2 39.3zM141.8 442.4c5.6 8.2 10.4 19.9 9.6 29.5-3.4 41-7.7 82-14 122.6-4.7 29.9-13.6 59.1-19.8 88.8-4.1 19.3-8.9 40.4 3.3 57.3 22.4 31.1 44.4 63.5 71.4 89.6 42.2 41 91.7 71.5 144.5 95.1 87.6 39.2 179.3 38.7 271.3 29.7 14.8-1.4 30.9-4.9 45.1-11.2 0.6-0.2 1.1-0.5 1.7-0.7s1.2-0.5 1.7-0.8c0.9-0.4 1.7-0.8 2.7-1.3 5.1-2.5 10.8-5.6 18.1-9.7 30.6-15.3 44.3-27.7 67.7-41.2 20.3-11.7 36.3-28.5 53.8-45 18.7-17.7 35.1-38.3 52.2-58 21.8-25.2 38.5-53.9 52.6-84.8 37.4-81.8 44.4-168.2 35.5-257.2-1-9.6 2.6-21.7-6.9-27.4-54.8 13-108.3 25.7-161.6 38.5-26.4 6.4-45.9-2.3-57.6-32.8-6.6 11.5-12.3 20.2-17 29.6-12.8 25.6-23.5 50.5-10.7 81.4 7.9 19.2-4.4 34.1-20.8 43.2-32.1 17.8-48.3 48.3-57.5 84-4 15.5-7 31.3-9 47.2-3.7 28.9-11.7 55.6-27.2 79.9-21.4 33.5-40.3 37.9-70.1 13.5-7.9-6.4-15.8-14.1-20.8-23.1-33.8-59.9-67-120.2-80.5-190-7.1-36.8-9.5-74.9-19.1-110.8-8.8-33.1-0.6-56.5 23.4-75 24.4-18.8 51.6-33.7 74.4-54.3 25-22.5 50.7-21.8 73.9-4.8 43.1 31.6 89.6 45.5 141 43.1 1.3-0.1 2.5-1.9 6.3-4.7-0.8-8.4-1.8-18.5-2.8-29.3-18.6-1.5-35.6-0.6-51.4-4.8-17.6-4.7-34.5-13.2-51.1-21.6-10.4-5.3-19.7-13.3-29.6-19.9-50.2-33.5-49.9-42.1-112.3-0.9-21.3 14.1-42.8 27.8-64.4 41.4-20.1 12.6-39.8 11.6-55.8-2.2-15.3-13.2-20.4-35.3-13.1-58.7 1.6-5.1 4.5-9.6 6.6-14.5 16.7-36.8 35.9-72.6 40-115.8 33.7-18.5 66.2-36.3 98.8-54.1C486.8 90.5 501 75.6 501 72.8c-18.7 0-69.7 8.9-83.9 10.3-59.8 13.3-123.4 35-179.7 72.8-4.6 3-9.2 6.2-13.6 9.5-11.2 8.2-22.2 17.3-32.7 27.1-2.2 2-4.3 4-6.3 6-40.1 39.2-71 85.7-89.3 141.1-7.9 23.9-6.4 44.9 13.2 62.9 12.3 11.7 23.4 25.5 33.1 39.9z" fill="#8A278E" p-id="1818"></path><path d="M932.2 417.7c9.5 5.7 5.9 17.8 6.9 27.4 8.9 89 1.8 175.4-35.5 257.2-14.1 30.9-30.8 59.6-52.6 84.8-17 19.7-33.5 40.3-52.2 58-17.4 16.5-36.4 31.8-56.8 43.6-23.4 13.5-46.9 24.7-68.4 42.8-4.3 3.6-9.1 6.7-14.3 9.4-0.9 0.5-1.8 0.9-2.7 1.3-0.6 0.3-1.2 0.6-1.7 0.8-0.6 0.2-1.1 0.5-1.7 0.7-11.2 4.9-21.6 7.2-45.1 11.2-92 9-183.7 9.5-271.3-29.7-52.8-23.6-102.3-54.1-144.5-95.1-26.9-26.1-49-58.5-71.4-89.6-12.2-16.9-7.4-38-3.3-57.3 6.3-29.7 15.1-58.9 19.8-88.8 6.3-40.6 10.7-81.6 14-122.6 0.8-9.6-4.1-21.3-9.6-29.5-9.7-14.4-20.9-28.3-33.5-39.8-19.6-18-21.1-39-13.2-62.9 18.3-55.4 49.1-101.8 89.3-141.1l6.3-6c10.5-9.8 21.5-18.8 32.7-27.1 4.5-3.3 9-6.5 13.6-9.5 55.1-36.5 117.3-55.1 183.7-61.9 14.2-1.5 28.7-0.2 43.1-0.2 0 2.8 0.1 5.6 0.1 8.4-32.6 17.8-65.1 35.6-98.8 54.1-4.1 43.2-23.4 78.9-40 115.8-2.2 4.9-5.1 9.4-6.6 14.5-7.3 23.4-2.2 45.5 13.1 58.7 16.1 13.8 35.7 14.8 55.8 2.2 21.6-13.5 43.1-27.3 64.4-41.4 62.4-41.2 62.1-32.6 112.3 0.9 9.9 6.6 19.2 14.6 29.6 19.9 16.6 8.4 33.5 16.9 51.1 21.6 15.8 4.2 32.9 3.3 51.4 4.8 1 10.8 2 20.8 2.8 29.3-3.8 2.9-5 4.6-6.3 4.7-51.5 2.5-97.9-11.4-141-43.1-23.2-17-48.9-17.8-73.9 4.8-22.8 20.6-50 35.5-74.4 54.3-24 18.5-32.2 41.9-23.4 75 9.6 36 12 74.1 19.1 110.8 13.5 69.7 46.7 130.1 80.5 190 5.1 9 12.9 16.7 20.8 23.1 29.8 24.5 48.7 20.1 70.1-13.5 15.5-24.3 23.6-51 27.2-79.9 2-15.9 5.1-31.7 9-47.2 9.2-35.7 25.3-66.2 57.5-84 16.5-9.1 28.8-24.1 20.8-43.2-12.8-30.9-2.1-55.8 10.7-81.4 4.7-9.3 10.4-18 17-29.6 11.7 30.5 31.2 39.2 57.6 32.8 53.6-12.7 107.1-25.4 161.9-38.5z" fill="#E1F3FC" p-id="1819"></path><path d="M765.9 422.1c-2.8 0.6-6.2-2.2-12.2-4.5-18.1-27.4-18.7-65.7-35.1-95-7-2.3-11.8-5.3-16.5-5.2-41.5 1.2-77.6-12.2-112.7-36.7-69.3-48.2-76.1-46.9-150.7-5.3-20.7 11.6-40.7 24.7-61.5 36.2-6.8 3.8-15 4.6-29 8.7 2-32.8 12.5-52.4 22.9-72.8 11.8-23 29.2-44.4 24.6-73 11.8-15.9 26.5-24.2 43.3-27.1 25.6-4.5 49.1-16.8 66.5-35.1 50.4-52.6 108.9-47 168.5-31.2 51.3 13.5 94.2 46.4 133 83.2 46.6 44.4 84.3 96.9 106.1 160.9 2.3 6.7 5.6 13.2 7 20.1 4.6 23.2-6.1 45.5-27 50.5-42.2 10-84.8 17.9-127.2 26.3z" fill="#C1D2DB" p-id="1820"></path><path d="M237.1 156c56.3-37.9 119.9-59.6 179.7-72.8 14.2-1.5 65.2-10.3 83.9-10.3 0 2.8-14.2 17.7-36.7 29.4 0-2.8-0.1-5.6-0.1-8.4-14.3 0-28.8-1.3-43.1 0.2-66.4 6.8-128.5 25.4-183.7 61.9z" fill="#6EBFCC" p-id="1821"></path><path d="M96.7 432.1c16.5 18.6 25.1 38.4 21.8 67.3-5.8 49.7-12.2 99-26.7 155.3C62.7 587.9 58.4 490.2 79.4 426c5.8 2 13.6 2 17.3 6.1z" fill="#C1D2DB" p-id="1822"></path></svg>