<?xml version="1.0" standalone="no"?><!DOCTYPE svg PUBLIC "-//W3C//DTD SVG 1.1//EN" "http://www.w3.org/Graphics/SVG/1.1/DTD/svg11.dtd"><svg t="1564563146289" class="icon" viewBox="0 0 1024 1024" version="1.1" xmlns="http://www.w3.org/2000/svg" p-id="4917" xmlns:xlink="http://www.w3.org/1999/xlink" width="200" height="200"><defs><style type="text/css"></style></defs><path d="M834.635549 123.128014h-97.399411v-49.344735A61.688981 61.688981 0 0 0 675.539094 12.094298H348.50122a61.697044 61.697044 0 0 0-61.729295 61.688981v49.344735h-97.399411c-67.22817 0-121.749264 54.488843-121.749264 121.749264v645.246909c0 67.22817 54.521094 121.76539 121.749264 121.76539h645.263035c67.244295 0 121.749264-54.53722 121.749264-121.76539V244.877278c-0.008063-67.260421-54.513031-121.749264-121.749264-121.749264z m-322.627486 684.908143c-132.835703 0-240.515267-107.711816-240.515268-240.539456 0-132.835703 107.679564-240.507205 240.515268-240.507205s240.531393 107.671501 240.531393 240.507205c0 132.819578-107.69569 240.539456-240.531393 240.539456z" fill="#D8E5EA" p-id="4918"></path><path d="M834.635549 238.056094h-97.399411v-49.336672a61.71317 61.71317 0 0 0-61.697044-61.705107H348.50122a61.71317 61.71317 0 0 0-61.729295 61.705107v49.336672h-97.399411c-67.22817 0-121.749264 54.521094-121.749264 121.733138v530.334955c0 67.22817 54.521094 121.76539 121.749264 121.76539h645.263035c67.244295 0 121.749264-54.53722 121.749264-121.76539V359.789232c-0.008063-67.212044-54.513031-121.733138-121.749264-121.733138zM752.539456 682.432844c0 132.835703-107.69569 240.52333-240.531393 240.52333s-240.515267-107.687627-240.515268-240.52333c0-19.842711 2.660746-39.024267 7.200139-57.46404-4.53133-18.455898-7.200139-37.621329-7.200139-57.472103 0-132.835703 107.679564-240.507205 240.515268-240.507205s240.531393 107.671501 240.531393 240.507205c0 19.850774-2.676871 39.016204-7.200139 57.472103 4.523267 18.439773 7.200139 37.621329 7.200139 57.46404z" fill="#C5D7DD" p-id="4919"></path><path d="M512.008063 590.072723m-265.743973 0a265.743973 265.743973 0 1 0 531.487945 0 265.743973 265.743973 0 1 0-531.487945 0Z" fill="#FF8F8F" p-id="4920"></path><path d="M777.752035 590.072723c0 112.420529-118.975638 203.571219-265.743972 203.57122S246.26409 702.493252 246.26409 590.072723c0-112.39634 118.975638-203.538968 265.743973-203.538968S777.752035 477.676383 777.752035 590.072723z" fill="#FF1A1A" p-id="4921"></path><path d="M246.26409 590.072723c0 146.78446 118.975638 265.760098 265.743973 265.760099S777.752035 736.857183 777.752035 590.072723H246.26409z" fill="#FFFFFF" p-id="4922" data-spm-anchor-id="a313x.7781069.0.i7" class="selected"></path><path d="M512.008063 793.643943c146.768334 0 265.743973-91.150691 265.743972-203.57122H246.26409c0 112.420529 118.975638 203.571219 265.743973 203.57122z" fill="#D8E5EA" p-id="4923" data-spm-anchor-id="a313x.7781069.0.i6" class=""></path><path d="M789.846333 590.072723c0-153.194438-124.63577-277.822145-277.83827-277.822144S234.169793 436.878285 234.169793 590.072723c0 149.154942 118.1371 271.186407 265.743972 277.548007v66.687958a12.094298 12.094298 0 1 0 24.188596 0v-66.687958c147.606872-6.361601 265.743973-128.401128 265.743972-277.548007zM512.008063 336.439174c135.810901 0 247.005874 107.276421 253.343286 241.539252H258.664777c6.337412-134.262831 117.532385-241.539251 253.343286-241.539252z m0 507.29935c-135.810901 0-247.005874-107.292547-253.343286-241.571503h506.686572c-6.337412 134.270893-117.532385 241.571503-253.343286 241.571503zM863.573172 827.612793h-77.588951a12.094298 12.094298 0 1 1 0-24.188595h77.588951a12.094298 12.094298 0 1 1 0 24.188595zM863.573172 874.836995h-77.588951a12.094298 12.094298 0 1 1 0-24.188596h77.588951a12.094298 12.094298 0 1 1 0 24.188596zM863.573172 922.04507h-77.588951a12.094298 12.094298 0 1 1 0-24.188595h77.588951a12.094298 12.094298 0 1 1 0 24.188595z" fill="#33363A" p-id="4924"></path><path d="M834.635549 111.033716h-85.305113v-37.250437C749.330436 33.098061 716.224311 0 675.531031 0h-327.029811c-40.709406 0-73.823593 33.098061-73.823593 73.783279v37.250437h-85.305113c-73.799405 0-133.843562 60.044157-133.843562 133.843562v645.246909c0 73.807468 60.044157 133.859687 133.843562 133.859687h645.263035c73.799405 0 133.843562-60.044157 133.843562-133.859687V244.877278c-0.008063-73.799405-60.05222-133.843562-133.843562-133.843562z m109.646903 779.090471c0 60.471489-49.19154 109.671092-109.654966 109.671092H524.102361v-13.118282a12.094298 12.094298 0 1 0-24.188596 0V999.795279H189.364451c-60.463426 0-109.654966-49.199603-109.654966-109.671092V244.877278c0-60.463426 49.19154-109.654966 109.654966-109.654967h97.399411a12.094298 12.094298 0 0 0 12.094298-12.094297v-49.344735C298.85816 46.43404 321.127793 24.188595 348.50122 24.188595h327.037874a49.651124 49.651124 0 0 1 49.602746 49.594684v49.344735a12.094298 12.094298 0 0 0 12.094298 12.094297h97.399411c60.463426 0 109.654966 49.19154 109.654966 109.654967v645.246909z" fill="#33363A" p-id="4925"></path><path d="M212.158171 293.746303m-51.626526 0a51.626526 51.626526 0 1 0 103.253051 0 51.626526 51.626526 0 1 0-103.253051 0Z" fill="#A7BBC1" p-id="4926"></path><path d="M212.158171 268.130581m-51.626526 0a51.626526 51.626526 0 1 0 103.253051 0 51.626526 51.626526 0 1 0-103.253051 0Z" fill="#93FF5A" p-id="4927"></path><path d="M175.649517 304.639234a51.634588 51.634588 0 0 1 73.009244-73.017307" fill="#65E529" p-id="4928"></path><path d="M212.166234 331.819152a63.54344 63.54344 0 0 1-45.055291-18.625218c-24.84975-24.841688-24.84975-65.268893-0.008063-90.118644 24.857813-24.833625 65.276956-24.841688 90.110581 0 12.045921 12.037858 18.673596 28.042645 18.673596 45.063353s-6.635738 33.025496-18.673596 45.055291a63.535377 63.535377 0 0 1-45.047227 18.625218z m-0.008063-103.196611a39.475788 39.475788 0 0 0-27.962017 11.554086 39.588668 39.588668 0 0 0 0 55.907907 39.604794 39.604794 0 0 0 55.907907 0 39.241965 39.241965 0 0 0 11.586338-27.953953c0-10.562353-4.112061-20.48774-11.586338-27.953954a39.395159 39.395159 0 0 0-27.94589-11.554086z" fill="#33363A" p-id="4929"></path><path d="M512 620.518102m-87.869104 0a87.869104 87.869104 0 1 0 175.738208 0 87.869104 87.869104 0 1 0-175.738208 0Z" fill="#A7BBC1" p-id="4930" data-spm-anchor-id="a313x.7781069.0.i5" class=""></path><path d="M512 590.65325m-87.877167 0a87.877167 87.877167 0 1 0 175.754334 0 87.877167 87.877167 0 1 0-175.754334 0Z" fill="#FFFFFF" p-id="4931"></path><path d="M449.867561 652.793751c-34.299428-34.315554-34.299428-89.965449 0-124.281003 34.33168-34.315554 89.965449-34.315554 124.264878 0" fill="#D8E5EA" p-id="4932"></path><path d="M512.008063 690.560212a99.737642 99.737642 0 0 1-70.695202-29.211761c-38.967827-38.992016-38.967827-102.40645-0.008063-141.390403 18.891293-18.88323 43.999055-29.276263 70.703265-29.276263s51.795846 10.401096 70.671013 29.276263c18.88323 18.88323 29.284326 43.982929 29.284326 70.695202s-10.401096 51.820034-29.292389 70.695201a99.608636 99.608636 0 0 1-70.66295 29.211761z m0-175.689832c-20.237792 0-39.274216 7.885482-53.593865 22.189005-29.534275 29.550401-29.534275 77.629266 0 107.179666 29.558464 29.534275 77.629266 29.518149 107.163541 0 14.319649-14.311586 22.205131-33.34801 22.205131-53.585801s-7.885482-39.274216-22.205131-53.585802a75.202343 75.202343 0 0 0-53.569676-22.197068z" fill="#33363A" p-id="4933"></path></svg>